<svg width="32" height="32" viewBox="0 0 32 32" fill="none" xmlns="http://www.w3.org/2000/svg">
<mask id="mask0_1_168" style="mask-type:alpha" maskUnits="userSpaceOnUse" x="0" y="0" width="32" height="32">
<rect width="32" height="32" fill="#D9D9D9"/>
</mask>
<g mask="url(#mask0_1_168)">
<path d="M12.3336 29.3334L11.8003 25.0667C11.5114 24.9556 11.2391 24.8222 10.9836 24.6667C10.728 24.5111 10.478 24.3445 10.2336 24.1667L6.26692 25.8334L2.60025 19.5L6.03358 16.9C6.01136 16.7445 6.00025 16.5945 6.00025 16.45V15.55C6.00025 15.4056 6.01136 15.2556 6.03358 15.1L2.60025 12.5L6.26692 6.16669L10.2336 7.83335C10.478 7.65558 10.7336 7.48891 11.0003 7.33335C11.2669 7.1778 11.5336 7.04446 11.8003 6.93335L12.3336 2.66669H19.6669L20.2003 6.93335C20.4891 7.04446 20.7614 7.1778 21.0169 7.33335C21.2725 7.48891 21.5225 7.65558 21.7669 7.83335L25.7336 6.16669L29.4003 12.5L25.9669 15.1C25.9891 15.2556 26.0003 15.4056 26.0003 15.55V16.45C26.0003 16.5945 25.978 16.7445 25.9336 16.9L29.3669 19.5L25.7003 25.8334L21.7669 24.1667C21.5225 24.3445 21.2669 24.5111 21.0003 24.6667C20.7336 24.8222 20.4669 24.9556 20.2003 25.0667L19.6669 29.3334H12.3336ZM14.6669 26.6667H17.3003L17.7669 23.1334C18.4558 22.9556 19.0947 22.6945 19.6836 22.35C20.2725 22.0056 20.8114 21.5889 21.3003 21.1L24.6003 22.4667L25.9003 20.2L23.0336 18.0334C23.1447 17.7222 23.2225 17.3945 23.2669 17.05C23.3114 16.7056 23.3336 16.3556 23.3336 16C23.3336 15.6445 23.3114 15.2945 23.2669 14.95C23.2225 14.6056 23.1447 14.2778 23.0336 13.9667L25.9003 11.8L24.6003 9.53335L21.3003 10.9334C20.8114 10.4222 20.2725 9.99446 19.6836 9.65002C19.0947 9.30558 18.4558 9.04446 17.7669 8.86669L17.3336 5.33335H14.7003L14.2336 8.86669C13.5447 9.04446 12.9058 9.30558 12.3169 9.65002C11.728 9.99446 11.1891 10.4111 10.7003 10.9L7.40025 9.53335L6.10025 11.8L8.96692 13.9334C8.85581 14.2667 8.77803 14.6 8.73358 14.9334C8.68914 15.2667 8.66692 15.6222 8.66692 16C8.66692 16.3556 8.68914 16.7 8.73358 17.0334C8.77803 17.3667 8.85581 17.7 8.96692 18.0334L6.10025 20.2L7.40025 22.4667L10.7003 21.0667C11.1891 21.5778 11.728 22.0056 12.3169 22.35C12.9058 22.6945 13.5447 22.9556 14.2336 23.1334L14.6669 26.6667ZM16.0669 20.6667C17.3558 20.6667 18.4558 20.2111 19.3669 19.3C20.278 18.3889 20.7336 17.2889 20.7336 16C20.7336 14.7111 20.278 13.6111 19.3669 12.7C18.4558 11.7889 17.3558 11.3334 16.0669 11.3334C14.7558 11.3334 13.6503 11.7889 12.7503 12.7C11.8503 13.6111 11.4003 14.7111 11.4003 16C11.4003 17.2889 11.8503 18.3889 12.7503 19.3C13.6503 20.2111 14.7558 20.6667 16.0669 20.6667Z" fill="#030303"/>
</g>
</svg>
